<svg width="348" height="76" viewBox="0 0 348 76" fill="none" xmlns="http://www.w3.org/2000/svg">
<path d="M5.53789 62.75C5.03789 62.75 4.60039 62.6 4.22539 62.3C3.87539 62 3.56289 61.4375 3.28789 60.6125C3.01289 59.7875 2.76289 58.6375 2.53789 57.1625C2.43789 56.2875 2.31289 55.1375 2.16289 53.7125C2.03789 52.2875 1.90039 50.725 1.75039 49.025C1.62539 47.3 1.50039 45.5375 1.37539 43.7375C1.25039 41.9125 1.13789 40.1375 1.03789 38.4125C0.937891 36.6875 0.850391 35.1125 0.775391 33.6875C0.725391 32.2375 0.700391 31.05 0.700391 30.125C0.700391 26.7 1.11289 24.0375 1.93789 22.1375C2.76289 20.2375 4.16289 18.9125 6.13789 18.1625C8.13789 17.4125 10.8629 17.0375 14.3129 17.0375C17.4129 17.0375 20.3629 17.325 23.1629 17.9C25.9879 18.475 28.5004 19.3625 30.7004 20.5625C32.9004 21.7625 34.6254 23.275 35.8754 25.1C37.1504 26.925 37.7879 29.0875 37.7879 31.5875C37.7879 33.5125 37.3129 35.2 36.3629 36.65C35.4379 38.075 34.1254 39.275 32.4254 40.25C30.7504 41.2 28.7629 41.975 26.4629 42.575C24.1879 43.15 21.7129 43.5625 19.0379 43.8125C17.2879 43.9625 15.5004 44.0625 13.6754 44.1125C11.8754 44.1375 10.0629 44.15 8.23789 44.15C7.66289 44.15 7.28789 44.3875 7.11289 44.8625C6.96289 45.3125 6.88789 45.9625 6.88789 46.8125C6.88789 47.4375 6.90039 48.2 6.92539 49.1C6.95039 50 6.98789 50.975 7.03789 52.025C7.11289 53.05 7.17539 54.075 7.22539 55.1C7.27539 56.1 7.31289 57.025 7.33789 57.875C7.38789 58.725 7.41289 59.425 7.41289 59.975C7.41289 60.925 7.25039 61.625 6.92539 62.075C6.60039 62.525 6.13789 62.75 5.53789 62.75ZM8.87539 40.9625C11.1754 40.9625 13.4754 40.8875 15.7754 40.7375C18.1004 40.5625 20.3004 40.2625 22.3754 39.8375C24.4504 39.4125 26.3004 38.825 27.9254 38.075C29.5504 37.325 30.8254 36.3875 31.7504 35.2625C32.6754 34.1375 33.1379 32.7875 33.1379 31.2125C33.1379 29.4125 32.6754 27.9 31.7504 26.675C30.8504 25.425 29.6754 24.3875 28.2254 23.5625C26.8004 22.7125 25.2629 22.0625 23.6129 21.6125C21.9629 21.1375 20.3879 20.8125 18.8879 20.6375C17.4129 20.4375 16.1879 20.3375 15.2129 20.3375C13.3129 20.3375 11.7379 20.5 10.4879 20.825C9.23789 21.125 8.25039 21.6 7.52539 22.25C6.82539 22.875 6.33789 23.6625 6.06289 24.6125C5.78789 25.5375 5.65039 26.6375 5.65039 27.9125C5.65039 29.8375 5.67539 31.525 5.72539 32.975C5.77539 34.425 5.86289 35.6625 5.98789 36.6875C6.13789 37.7125 6.32539 38.5375 6.55039 39.1625C6.80039 39.7875 7.11289 40.25 7.48789 40.55C7.86289 40.825 8.32539 40.9625 8.87539 40.9625ZM51.8826 63.875C49.7826 63.875 48.1201 63.3375 46.8951 62.2625C45.6951 61.1875 44.8201 59.325 44.2701 56.675C43.7451 54.025 43.4451 50.35 43.3701 45.65C43.3201 44.675 43.2951 43.4125 43.2951 41.8625C43.3201 40.3125 43.3576 38.6125 43.4076 36.7625C43.4826 34.9125 43.5576 33.075 43.6326 31.25C43.7326 29.425 43.8201 27.725 43.8951 26.15C43.9701 24.575 44.0576 23.3 44.1576 22.325C44.2826 20.475 44.4201 19 44.5701 17.9C44.7201 16.775 44.9576 15.9625 45.2826 15.4625C45.6326 14.9625 46.0951 14.7125 46.6701 14.7125C47.4451 14.7125 47.9826 14.9875 48.2826 15.5375C48.5826 16.0875 48.7326 17.0875 48.7326 18.5375C48.7326 19.3375 48.6951 20.375 48.6201 21.65C48.5701 22.925 48.4951 24.3375 48.3951 25.8875C48.3201 27.4125 48.2326 29 48.1326 30.65C48.0326 32.275 47.9451 33.875 47.8701 35.45C47.7951 37.025 47.7201 38.475 47.6451 39.8C47.5951 41.125 47.5701 42.25 47.5701 43.175C47.5701 46.925 47.6701 49.9375 47.8701 52.2125C48.0701 54.4875 48.3701 56.2125 48.7701 57.3875C49.1701 58.5625 49.6576 59.35 50.2326 59.75C50.8076 60.15 51.4576 60.35 52.1826 60.35C53.2076 60.35 54.0076 60.1625 54.5826 59.7875C55.1826 59.4125 55.6826 59.0375 56.0826 58.6625C56.4826 58.2625 56.9076 58.0625 57.3576 58.0625C57.7076 58.0625 57.9826 58.1875 58.1826 58.4375C58.3826 58.6625 58.4826 58.9625 58.4826 59.3375C58.4826 59.8125 58.3326 60.3125 58.0326 60.8375C57.7326 61.3625 57.2951 61.85 56.7201 62.3C56.1701 62.775 55.4826 63.15 54.6576 63.425C53.8326 63.725 52.9076 63.875 51.8826 63.875ZM76.5834 64.8875C74.6334 64.8875 72.8209 64.6875 71.1459 64.2875C69.4959 63.8875 68.0459 63.2625 66.7959 62.4125C65.5709 61.5625 64.6084 60.475 63.9084 59.15C63.2334 57.825 62.8959 56.2375 62.8959 54.3875C62.8959 52.0375 63.4584 50.125 64.5834 48.65C65.7334 47.175 67.2709 46.0375 69.1959 45.2375C71.1459 44.4125 73.3334 43.85 75.7584 43.55C78.1834 43.25 80.6834 43.1 83.2584 43.1C84.1584 43.1 85.0834 43.125 86.0334 43.175C86.9834 43.225 87.8834 43.275 88.7334 43.325C89.5834 43.375 90.2959 43.4 90.8709 43.4C91.5709 43.4 92.0459 43.3 92.2959 43.1C92.5459 42.875 92.6709 42.475 92.6709 41.9C92.6709 40.6 92.5084 39.45 92.1834 38.45C91.8584 37.425 91.3959 36.5375 90.7959 35.7875C90.1959 35.0375 89.4834 34.3875 88.6584 33.8375C87.3834 33.0125 85.8709 32.425 84.1209 32.075C82.3959 31.7 80.5459 31.5125 78.5709 31.5125C76.2959 31.5125 74.3834 31.7625 72.8334 32.2625C71.2834 32.7375 69.9959 33.225 68.9709 33.725C67.9459 34.225 67.0834 34.475 66.3834 34.475C65.7334 34.475 65.2459 34.375 64.9209 34.175C64.6209 33.95 64.4709 33.5875 64.4709 33.0875C64.4709 32.4875 64.8084 31.875 65.4834 31.25C66.1834 30.6 67.1709 30.0125 68.4459 29.4875C69.7209 28.9375 71.2459 28.5 73.0209 28.175C74.7959 27.825 76.7584 27.65 78.9084 27.65C83.1084 27.65 86.5959 28.25 89.3709 29.45C92.1459 30.625 94.2209 32.475 95.5959 35C96.9709 37.525 97.6584 40.85 97.6584 44.975C97.6584 46.4 97.5709 47.65 97.3959 48.725C97.2459 49.8 97.0584 50.725 96.8334 51.5C96.6084 52.275 96.4084 52.95 96.2334 53.525C96.0834 54.075 96.0084 54.5625 96.0084 54.9875C96.0084 55.5375 96.1709 56.0375 96.4959 56.4875C96.8459 56.9375 97.2459 57.3625 97.6959 57.7625C98.1709 58.1375 98.5709 58.5375 98.8959 58.9625C99.2459 59.3625 99.4209 59.8125 99.4209 60.3125C99.4209 61.0375 99.1709 61.55 98.6709 61.85C98.1959 62.125 97.7084 62.2625 97.2084 62.2625C96.5834 62.2625 96.0584 62.0125 95.6334 61.5125C95.2084 61.0125 94.7959 60.525 94.3959 60.05C93.9959 59.575 93.4959 59.3375 92.8959 59.3375C92.5459 59.3375 92.1834 59.4125 91.8084 59.5625C91.4584 59.7125 90.9959 60.0125 90.4209 60.4625C89.7209 61.0125 88.8084 61.625 87.6834 62.3C86.5584 63 85.0959 63.6 83.2959 64.1C81.5209 64.625 79.2834 64.8875 76.5834 64.8875ZM77.4459 61.475C79.3959 61.475 81.2709 61.1625 83.0709 60.5375C84.8959 59.9125 86.5209 59.05 87.9459 57.95C89.3709 56.825 90.4959 55.525 91.3209 54.05C92.1709 52.55 92.5959 50.95 92.5959 49.25C92.5959 48.25 92.2459 47.5375 91.5459 47.1125C90.8709 46.6875 89.7209 46.425 88.0959 46.325C86.4959 46.225 84.3084 46.175 81.5334 46.175C78.9084 46.175 76.5084 46.4375 74.3334 46.9625C72.1584 47.4625 70.4209 48.3125 69.1209 49.5125C67.8209 50.6875 67.1709 52.3 67.1709 54.35C67.1709 55.925 67.5584 57.2375 68.3334 58.2875C69.1334 59.3375 70.2959 60.1375 71.8209 60.6875C73.3709 61.2125 75.2459 61.475 77.4459 61.475ZM106.856 75.575C106.281 75.575 105.844 75.425 105.544 75.125C105.269 74.85 105.131 74.5125 105.131 74.1125C105.131 73.5875 105.419 73.0375 105.994 72.4625C106.569 71.9125 107.269 71.3625 108.094 70.8125C109.519 69.7875 110.894 68.675 112.219 67.475C113.569 66.275 114.781 65.1 115.856 63.95C116.931 62.8 117.781 61.7625 118.406 60.8375C119.056 59.9125 119.381 59.2 119.381 58.7C119.381 58.275 119.056 57.7125 118.406 57.0125C117.756 56.3125 116.819 55.4625 115.594 54.4625C114.494 53.5125 113.369 52.325 112.219 50.9C111.069 49.45 109.969 47.875 108.919 46.175C107.869 44.475 106.931 42.7625 106.106 41.0375C105.281 39.2875 104.631 37.6375 104.156 36.0875C103.681 34.5125 103.444 33.1375 103.444 31.9625C103.444 31.5625 103.531 31.2125 103.706 30.9125C103.881 30.5875 104.106 30.35 104.381 30.2C104.681 30.025 105.006 29.9375 105.356 29.9375C106.081 29.9375 106.694 30.2 107.194 30.725C107.719 31.25 108.256 32.2875 108.806 33.8375C109.906 37.3625 111.306 40.625 113.006 43.625C114.731 46.625 116.394 49.1375 117.994 51.1625C118.819 52.1625 119.656 53.0375 120.506 53.7875C121.381 54.5375 122.031 54.9125 122.456 54.9125C123.106 54.9125 123.756 54.55 124.406 53.825C125.081 53.075 125.669 52.325 126.169 51.575C127.969 48.975 129.419 46.2375 130.519 43.3625C131.619 40.4625 132.694 37.35 133.744 34.025C134.219 32.75 134.719 31.6875 135.244 30.8375C135.769 29.9875 136.344 29.5625 136.969 29.5625C137.669 29.5625 138.156 29.775 138.431 30.2C138.706 30.625 138.844 31.15 138.844 31.775C138.844 33.425 138.569 35.275 138.019 37.325C137.469 39.35 136.731 41.45 135.806 43.625C134.906 45.775 133.894 47.8875 132.769 49.9625C131.644 52.0125 130.494 53.9125 129.319 55.6625C128.144 57.3875 127.031 58.8375 125.981 60.0125C124.506 61.6375 122.869 63.35 121.069 65.15C119.294 66.975 117.506 68.675 115.706 70.25C113.931 71.85 112.256 73.1375 110.681 74.1125C109.131 75.0875 107.856 75.575 106.856 75.575ZM173.491 64.6C172.424 64.6 171.574 64.3 170.941 63.7C170.308 63.1 169.991 62.0667 169.991 60.6C169.991 60.0667 169.991 59.3833 169.991 58.55C170.024 57.6833 170.041 56.7833 170.041 55.85C170.074 54.8833 170.091 53.95 170.091 53.05C170.124 52.1167 170.141 51.2667 170.141 50.5C170.074 48.9 169.758 47.7833 169.191 47.15C168.624 46.4833 167.174 46.1333 164.841 46.1C162.241 46.0667 159.691 45.9833 157.191 45.85C154.724 45.7167 152.608 45.4333 150.841 45C149.341 44.6333 148.141 43.95 147.241 42.95C146.341 41.95 145.691 40.6833 145.291 39.15C144.924 37.6167 144.741 35.9167 144.741 34.05C144.741 32.65 144.891 30.9833 145.191 29.05C145.524 27.1167 145.924 25.1 146.391 23C146.891 20.9 147.408 18.8833 147.941 16.95C148.508 15.0167 149.008 13.35 149.441 11.95C150.008 10.0167 150.558 8.4 151.091 7.1C151.658 5.76667 152.258 4.78333 152.891 4.15C153.558 3.48333 154.341 3.15 155.241 3.15C155.741 3.15 156.158 3.25 156.491 3.45C156.858 3.65 157.124 3.96666 157.291 4.4C157.491 4.8 157.591 5.31666 157.591 5.95C157.591 6.91667 157.424 8.18333 157.091 9.75C156.758 11.2833 156.358 13 155.891 14.9C155.424 16.7667 154.958 18.7167 154.491 20.75C154.024 22.75 153.624 24.7167 153.291 26.65C152.958 28.5833 152.791 30.3667 152.791 32C152.791 33.4 152.891 34.5333 153.091 35.4C153.324 36.2333 153.708 36.8833 154.241 37.35C154.774 37.8167 155.524 38.1833 156.491 38.45C157.624 38.7833 159.124 39 160.991 39.1C162.858 39.2 164.641 39.25 166.341 39.25C168.274 39.25 169.541 39 170.141 38.5C170.741 37.9667 171.041 37.0667 171.041 35.8C171.041 35.3 171.058 34.4 171.091 33.1C171.158 31.8 171.224 30.25 171.291 28.45C171.358 26.6167 171.441 24.6833 171.541 22.65C171.641 20.6167 171.724 18.6333 171.791 16.7C171.858 14.7333 171.924 12.9667 171.991 11.4C172.058 9.8 172.108 8.56666 172.141 7.7C172.241 5.93333 172.541 4.33333 173.041 2.9C173.574 1.46667 174.374 0.749999 175.441 0.749999C176.208 0.749999 176.824 0.933331 177.291 1.29999C177.791 1.66666 178.174 2.38333 178.441 3.45C178.708 4.51666 178.891 6.08333 178.991 8.15C179.024 8.95 179.041 10 179.041 11.3C179.074 12.5667 179.074 14 179.041 15.6C179.041 17.2 179.024 18.9167 178.991 20.75C178.991 22.55 178.974 24.4167 178.941 26.35C178.941 28.25 178.924 30.1333 178.891 32C178.891 33.8667 178.891 35.6667 178.891 37.4C178.891 38.0667 179.074 38.5333 179.441 38.8C179.841 39.0333 180.391 39.15 181.091 39.15C182.024 39.15 183.008 39.0833 184.041 38.95C185.108 38.8167 186.108 38.7833 187.041 38.85C187.908 38.95 188.624 39.1667 189.191 39.5C189.758 39.8333 190.041 40.45 190.041 41.35C190.041 42.6167 189.641 43.5 188.841 44C188.041 44.4667 187.008 44.7667 185.741 44.9C184.908 44.9667 183.991 45.0833 182.991 45.25C181.991 45.3833 181.141 45.5333 180.441 45.7C179.508 45.9 178.858 46.3667 178.491 47.1C178.158 47.8 177.941 48.9833 177.841 50.65C177.808 51.65 177.741 52.7833 177.641 54.05C177.574 55.3167 177.491 56.5333 177.391 57.7C177.324 58.8667 177.241 59.7833 177.141 60.45C176.908 61.8833 176.491 62.9333 175.891 63.6C175.324 64.2667 174.524 64.6 173.491 64.6ZM200.915 62.675C198.34 62 196.603 60.425 195.703 57.95C194.803 55.45 194.353 52.1625 194.353 48.0875C194.353 46.7625 194.378 45.225 194.428 43.475C194.503 41.7 194.59 39.8625 194.69 37.9625C194.815 36.0375 194.94 34.175 195.065 32.375C195.19 30.55 195.315 28.9 195.44 27.425C195.565 25.95 195.665 24.8125 195.74 24.0125C196.04 21.0375 196.428 19.0375 196.903 18.0125C197.378 16.9625 198.065 16.4375 198.965 16.4375C199.465 16.4375 199.84 16.575 200.09 16.85C200.34 17.125 200.503 17.525 200.578 18.05C200.678 18.575 200.728 19.225 200.728 20C200.728 20.825 200.69 21.85 200.615 23.075C200.565 24.275 200.503 25.5875 200.428 27.0125C200.353 28.4375 200.265 29.9375 200.165 31.5125C200.09 33.0875 200.015 34.6625 199.94 36.2375C199.865 37.8125 199.803 39.35 199.753 40.85C199.703 42.35 199.678 43.75 199.678 45.05C199.703 47.75 199.815 49.975 200.015 51.725C200.24 53.475 200.703 54.8375 201.403 55.8125C202.128 56.7625 203.228 57.4375 204.703 57.8375C206.203 58.2375 208.253 58.4375 210.853 58.4375C212.428 58.4625 213.928 58.45 215.353 58.4C216.778 58.35 217.965 58.3 218.915 58.25C220.765 58.05 222.19 57.9 223.19 57.8C224.19 57.675 224.903 57.65 225.328 57.725C225.678 57.775 225.915 57.9 226.04 58.1C226.19 58.3 226.265 58.6 226.265 59C226.265 59.575 226.015 60.0625 225.515 60.4625C225.04 60.8375 224.328 61.175 223.378 61.475C222.428 61.75 221.24 62.0375 219.815 62.3375C218.215 62.6375 216.428 62.8875 214.453 63.0875C212.478 63.2875 210.528 63.3875 208.603 63.3875C207.928 63.3875 207.103 63.3625 206.128 63.3125C205.178 63.2625 204.24 63.175 203.315 63.05C202.39 62.95 201.59 62.825 200.915 62.675ZM250.649 64.25C246.524 64.25 242.999 63.625 240.074 62.375C237.149 61.15 234.899 59.2375 233.324 56.6375C231.774 54.0375 230.999 50.7 230.999 46.625C230.999 43.25 231.549 40.3125 232.649 37.8125C233.749 35.2875 235.249 33.1875 237.149 31.5125C239.074 29.8375 241.299 28.5875 243.824 27.7625C246.374 26.9125 249.074 26.4875 251.924 26.4875C253.874 26.4875 255.674 26.725 257.324 27.2C258.999 27.65 260.462 28.3375 261.712 29.2625C262.962 30.1875 263.924 31.3375 264.599 32.7125C265.299 34.0625 265.649 35.65 265.649 37.475C265.649 39.725 265.124 41.525 264.074 42.875C263.024 44.225 261.612 45.2625 259.837 45.9875C258.062 46.6875 256.049 47.1625 253.799 47.4125C251.574 47.6625 249.262 47.8125 246.862 47.8625C245.887 47.9375 244.749 47.975 243.449 47.975C242.174 47.975 240.962 47.9625 239.812 47.9375C238.687 47.9125 237.862 47.9 237.337 47.9C236.612 47.9 236.112 48.0125 235.837 48.2375C235.587 48.4625 235.462 48.8625 235.462 49.4375C235.462 50.1875 235.687 51.1125 236.137 52.2125C236.587 53.3125 237.212 54.3875 238.012 55.4375C239.587 57.4375 241.399 58.775 243.449 59.45C245.499 60.1 248.049 60.425 251.099 60.425C253.399 60.425 255.399 60.175 257.099 59.675C258.799 59.175 260.212 58.6875 261.337 58.2125C262.462 57.7125 263.349 57.4625 263.999 57.4625C264.474 57.4625 264.824 57.5625 265.049 57.7625C265.299 57.9375 265.424 58.2625 265.424 58.7375C265.424 59.2625 265.062 59.8375 264.337 60.4625C263.637 61.0875 262.637 61.6875 261.337 62.2625C260.062 62.8375 258.512 63.3125 256.687 63.6875C254.887 64.0625 252.874 64.25 250.649 64.25ZM247.124 45.125C249.724 45.125 252.087 44.9 254.212 44.45C256.362 44 258.074 43.2125 259.349 42.0875C260.649 40.9625 261.299 39.375 261.299 37.325C261.299 34.925 260.437 33.075 258.712 31.775C257.012 30.45 254.499 29.7875 251.174 29.7875C249.224 29.7875 247.337 30.1375 245.512 30.8375C243.712 31.5125 242.099 32.4625 240.674 33.6875C239.274 34.8875 238.149 36.2625 237.299 37.8125C236.474 39.3375 236.062 40.975 236.062 42.725C236.062 43.5 236.399 44.0625 237.074 44.4125C237.774 44.7375 238.924 44.9375 240.524 45.0125C242.149 45.0875 244.349 45.125 247.124 45.125ZM285.397 64.8875C283.447 64.8875 281.634 64.6875 279.959 64.2875C278.309 63.8875 276.859 63.2625 275.609 62.4125C274.384 61.5625 273.422 60.475 272.722 59.15C272.047 57.825 271.709 56.2375 271.709 54.3875C271.709 52.0375 272.272 50.125 273.397 48.65C274.547 47.175 276.084 46.0375 278.009 45.2375C279.959 44.4125 282.147 43.85 284.572 43.55C286.997 43.25 289.497 43.1 292.072 43.1C292.972 43.1 293.897 43.125 294.847 43.175C295.797 43.225 296.697 43.275 297.547 43.325C298.397 43.375 299.109 43.4 299.684 43.4C300.384 43.4 300.859 43.3 301.109 43.1C301.359 42.875 301.484 42.475 301.484 41.9C301.484 40.6 301.322 39.45 300.997 38.45C300.672 37.425 300.209 36.5375 299.609 35.7875C299.009 35.0375 298.297 34.3875 297.472 33.8375C296.197 33.0125 294.684 32.425 292.934 32.075C291.209 31.7 289.359 31.5125 287.384 31.5125C285.109 31.5125 283.197 31.7625 281.647 32.2625C280.097 32.7375 278.809 33.225 277.784 33.725C276.759 34.225 275.897 34.475 275.197 34.475C274.547 34.475 274.059 34.375 273.734 34.175C273.434 33.95 273.284 33.5875 273.284 33.0875C273.284 32.4875 273.622 31.875 274.297 31.25C274.997 30.6 275.984 30.0125 277.259 29.4875C278.534 28.9375 280.059 28.5 281.834 28.175C283.609 27.825 285.572 27.65 287.722 27.65C291.922 27.65 295.409 28.25 298.184 29.45C300.959 30.625 303.034 32.475 304.409 35C305.784 37.525 306.472 40.85 306.472 44.975C306.472 46.4 306.384 47.65 306.209 48.725C306.059 49.8 305.872 50.725 305.647 51.5C305.422 52.275 305.222 52.95 305.047 53.525C304.897 54.075 304.822 54.5625 304.822 54.9875C304.822 55.5375 304.984 56.0375 305.309 56.4875C305.659 56.9375 306.059 57.3625 306.509 57.7625C306.984 58.1375 307.384 58.5375 307.709 58.9625C308.059 59.3625 308.234 59.8125 308.234 60.3125C308.234 61.0375 307.984 61.55 307.484 61.85C307.009 62.125 306.522 62.2625 306.022 62.2625C305.397 62.2625 304.872 62.0125 304.447 61.5125C304.022 61.0125 303.609 60.525 303.209 60.05C302.809 59.575 302.309 59.3375 301.709 59.3375C301.359 59.3375 300.997 59.4125 300.622 59.5625C300.272 59.7125 299.809 60.0125 299.234 60.4625C298.534 61.0125 297.622 61.625 296.497 62.3C295.372 63 293.909 63.6 292.109 64.1C290.334 64.625 288.097 64.8875 285.397 64.8875ZM286.259 61.475C288.209 61.475 290.084 61.1625 291.884 60.5375C293.709 59.9125 295.334 59.05 296.759 57.95C298.184 56.825 299.309 55.525 300.134 54.05C300.984 52.55 301.409 50.95 301.409 49.25C301.409 48.25 301.059 47.5375 300.359 47.1125C299.684 46.6875 298.534 46.425 296.909 46.325C295.309 46.225 293.122 46.175 290.347 46.175C287.722 46.175 285.322 46.4375 283.147 46.9625C280.972 47.4625 279.234 48.3125 277.934 49.5125C276.634 50.6875 275.984 52.3 275.984 54.35C275.984 55.925 276.372 57.2375 277.147 58.2875C277.947 59.3375 279.109 60.1375 280.634 60.6875C282.184 61.2125 284.059 61.475 286.259 61.475ZM329.657 63.8375C326.057 63.8375 322.97 63.175 320.395 61.85C317.82 60.5 315.845 58.5625 314.47 56.0375C313.095 53.5125 312.407 50.5 312.407 47C312.407 43.675 313.095 40.85 314.47 38.525C315.845 36.175 317.782 34.3875 320.282 33.1625C322.807 31.9375 325.77 31.325 329.17 31.325C331.245 31.325 332.957 31.55 334.307 32C335.682 32.45 336.807 32.9375 337.682 33.4625C338.382 33.8625 339.007 34.225 339.557 34.55C340.132 34.85 340.545 35 340.795 35C341.17 35 341.357 34.5875 341.357 33.7625C341.357 32.9625 341.282 31.975 341.132 30.8C341.007 29.625 340.845 28.3625 340.645 27.0125C340.445 25.6625 340.232 24.325 340.007 23C339.807 21.675 339.632 20.4625 339.482 19.3625C339.357 18.2375 339.295 17.35 339.295 16.7C339.295 15.025 340.007 14.1875 341.432 14.1875C341.982 14.1875 342.482 14.3875 342.932 14.7875C343.407 15.1875 343.795 15.7625 344.095 16.5125C344.395 17.4875 344.72 18.8875 345.07 20.7125C345.42 22.5375 345.745 24.5875 346.045 26.8625C346.37 29.1375 346.67 31.425 346.945 33.725C347.22 36.025 347.432 38.1375 347.582 40.0625C347.732 41.9875 347.807 43.5125 347.807 44.6375C347.807 48.8875 347.17 52.4375 345.895 55.2875C344.645 58.1375 342.682 60.275 340.007 61.7C337.332 63.125 333.882 63.8375 329.657 63.8375ZM329.77 60.5C332.57 60.5 334.907 59.9875 336.782 58.9625C338.682 57.9375 340.107 56.45 341.057 54.5C342.032 52.525 342.52 50.15 342.52 47.375C342.52 44.675 342.02 42.4125 341.02 40.5875C340.02 38.7625 338.595 37.3875 336.745 36.4625C334.92 35.5125 332.707 35.0375 330.107 35.0375C327.332 35.0375 324.957 35.4875 322.982 36.3875C321.007 37.2875 319.495 38.6375 318.445 40.4375C317.42 42.2375 316.907 44.525 316.907 47.3C316.907 50 317.432 52.3375 318.482 54.3125C319.557 56.2875 321.057 57.8125 322.982 58.8875C324.907 59.9625 327.17 60.5 329.77 60.5Z" fill="url(#paint0_linear_1_7)"/>
<defs>
<linearGradient id="paint0_linear_1_7" x1="109" y1="41" x2="201" y2="41" gradientUnits="userSpaceOnUse">
<stop stop-color="#EFA8B0"/>
<stop offset="0.526042" stop-color="#A89CC8"/>
<stop offset="1" stop-color="#8CC9F0"/>
</linearGradient>
</defs>
</svg>
